<svg width="48" height="48" viewBox="0 0 48 48" fill="none" xmlns="http://www.w3.org/2000/svg">
<circle cx="24" cy="24" r="24" fill="#EF6D58"/>
<path d="M32 19.54C31.412 19.8013 30.7787 19.9773 30.1147 20.0573C30.7933 19.6507 31.312 19.008 31.5587 18.2413C30.924 18.6173 30.2213 18.8907 29.4733 19.0373C28.876 18.3987 28.0213 18 27.0787 18C24.9587 18 23.4013 19.9773 23.88 22.0307C21.1533 21.8933 18.7333 20.5867 17.1147 18.6013C16.2547 20.076 16.6693 22.0067 18.1307 22.984C17.5933 22.9667 17.088 22.8187 16.6453 22.5733C16.6093 24.0933 17.7 25.516 19.2787 25.8333C18.8173 25.9587 18.3107 25.988 17.796 25.8893C18.2133 27.1933 19.428 28.1413 20.8627 28.168C19.48 29.2507 17.7427 29.7347 16 29.5293C17.4533 30.4613 19.1773 31.004 21.0307 31.004C27.1267 31.004 30.5693 25.856 30.3613 21.2387C31.004 20.7773 31.56 20.1987 32 19.54Z" fill="white"/>
</svg>
